<svg width="20" height="20" viewBox="0 0 20 20" fill="none" xmlns="http://www.w3.org/2000/svg">
<path d="M10 1.07715C4.47712 1.07715 0 4.60724 0 8.96176C0 11.7771 1.87173 14.2473 4.68731 15.6422C4.53413 16.1705 3.70298 19.0407 3.6699 19.2662C3.6699 19.2662 3.65 19.4356 3.75971 19.5002C3.86942 19.5648 3.99846 19.5147 3.99846 19.5147C4.31308 19.4707 7.64683 17.129 8.22385 16.7223C8.80029 16.804 9.39385 16.8464 10 16.8464C15.5229 16.8464 20 13.3164 20 8.96176C20 4.60724 15.5229 1.07715 10 1.07715Z" fill="#1F3247"/>
<path d="M4.47076 11.7136C4.15259 11.7136 3.89384 11.4665 3.89384 11.1627V7.73528H2.99364C2.68143 7.73528 2.42749 7.48181 2.42749 7.17037C2.42749 6.85893 2.68153 6.60547 2.99364 6.60547H5.94787C6.26009 6.60547 6.51403 6.85893 6.51403 7.17037C6.51403 7.48181 6.25999 7.73528 5.94787 7.73528H5.04768V11.1627C5.04768 11.4665 4.78893 11.7136 4.47076 11.7136ZM9.52961 11.7061C9.28903 11.7061 9.10499 11.6085 9.04951 11.4513L8.76384 10.7035L7.00461 10.7034L6.71874 11.4517C6.66345 11.6085 6.47951 11.7061 6.23893 11.7061C6.11239 11.7063 5.9873 11.6791 5.8722 11.6265C5.71316 11.5532 5.56028 11.3514 5.73547 10.8073L7.11547 7.17499C7.21268 6.89874 7.50797 6.61412 7.88374 6.60556C8.26057 6.61403 8.55586 6.89874 8.65326 7.17557L10.0327 10.8062C10.2083 11.3516 10.0554 11.5535 9.89634 11.6266C9.78121 11.6791 9.65614 11.7062 9.52961 11.7061C9.52961 11.7061 9.52951 11.7061 9.52961 11.7061ZM8.46047 9.68153L7.88422 8.04451L7.30797 9.68153H8.46047ZM10.9611 11.6295C10.6562 11.6295 10.4083 11.3922 10.4083 11.1007V7.18239C10.4083 6.86422 10.6725 6.60547 10.9972 6.60547C11.3219 6.60547 11.5861 6.86422 11.5861 7.18239V10.5718H12.8121C13.117 10.5718 13.365 10.8091 13.365 11.1007C13.365 11.3922 13.117 11.6295 12.8121 11.6295H10.9611ZM14.1663 11.7061C13.8482 11.7061 13.5894 11.4474 13.5894 11.1292V7.18239C13.5894 6.86422 13.8482 6.60547 14.1663 6.60547C14.4845 6.60547 14.7433 6.86422 14.7433 7.18239V8.42239L16.3529 6.81278C16.4357 6.72999 16.5494 6.68441 16.6729 6.68441C16.8169 6.68441 16.9615 6.74653 17.0699 6.8548C17.171 6.95576 17.2312 7.08566 17.2395 7.22057C17.2479 7.35662 17.2026 7.48133 17.1122 7.57182L15.7975 8.88633L17.2176 10.7677C17.2634 10.828 17.2968 10.8969 17.3159 10.9703C17.3349 11.0436 17.3391 11.1201 17.3284 11.1951C17.3181 11.2702 17.293 11.3424 17.2546 11.4078C17.2161 11.4731 17.1651 11.5301 17.1045 11.5756C17.0047 11.6514 16.8828 11.6923 16.7575 11.692C16.6681 11.6924 16.5799 11.6719 16.4998 11.6321C16.4198 11.5923 16.3502 11.5342 16.2966 11.4627L14.9436 9.66999L14.7435 9.87018V11.1289C14.7433 11.2819 14.6824 11.4286 14.5742 11.5368C14.466 11.6451 14.3194 11.7059 14.1663 11.7061Z" fill="white"/>
</svg>
