<svg width="140" height="140" viewBox="0 0 140 140" fill="none" xmlns="http://www.w3.org/2000/svg">
<path d="M114.066 0H44.9895C37.3234 0 31.0868 5.88793 31.0868 13.125V17.5H21.5318C16.293 17.5 12.0312 21.7618 12.0312 27.0006V130.499C12.0312 135.738 16.293 140 21.5318 140H99.4126C104.651 140 108.913 135.738 108.913 130.499V122.5H114.066C121.732 122.5 127.969 116.612 127.969 109.375V13.125C127.969 5.88793 121.732 0 114.066 0ZM100.163 130.499C100.163 130.913 99.8266 131.25 99.4126 131.25H21.5318C21.1179 131.25 20.7812 130.913 20.7812 130.499V27.0006C20.7812 26.5866 21.1179 26.25 21.5318 26.25H99.4126C99.8266 26.25 100.163 26.5866 100.163 27.0006V130.499ZM119.219 109.375C119.219 111.787 116.907 113.75 114.066 113.75H108.913V27.0006C108.913 21.7618 104.651 17.5 99.4126 17.5H39.8368V13.125C39.8368 10.7127 42.1485 8.75 44.9895 8.75H114.066C116.907 8.75 119.219 10.7127 119.219 13.125V109.375Z" fill="url(#paint0_linear_116_2843)"/>
<path d="M82.0312 59.0625H40.4688C38.0527 59.0625 36.0938 57.1036 36.0938 54.6875C36.0938 52.2714 38.0527 50.3125 40.4688 50.3125H82.0312C84.4473 50.3125 86.4062 52.2714 86.4062 54.6875C86.4062 57.1036 84.4473 59.0625 82.0312 59.0625Z" fill="url(#paint1_linear_116_2843)"/>
<path d="M82.0312 76.5625H40.4688C38.0527 76.5625 36.0938 74.6036 36.0938 72.1875C36.0938 69.7714 38.0527 67.8125 40.4688 67.8125H82.0312C84.4473 67.8125 86.4062 69.7714 86.4062 72.1875C86.4062 74.6036 84.4473 76.5625 82.0312 76.5625Z" fill="url(#paint2_linear_116_2843)"/>
<path d="M82.0312 94.0625H40.4688C38.0527 94.0625 36.0938 92.1036 36.0938 89.6875C36.0938 87.2714 38.0527 85.3125 40.4688 85.3125H82.0312C84.4473 85.3125 86.4062 87.2714 86.4062 89.6875C86.4062 92.1036 84.4473 94.0625 82.0312 94.0625Z" fill="url(#paint3_linear_116_2843)"/>
<defs>
<linearGradient id="paint0_linear_116_2843" x1="113.817" y1="-100.333" x2="-49.2983" y2="-66.7274" gradientUnits="userSpaceOnUse">
<stop stop-color="#5FABE3"/>
<stop offset="1" stop-color="#4988B6"/>
</linearGradient>
<linearGradient id="paint1_linear_116_2843" x1="80.2648" y1="44.0417" x2="56.0426" y2="78.6921" gradientUnits="userSpaceOnUse">
<stop stop-color="#5FABE3"/>
<stop offset="1" stop-color="#4988B6"/>
</linearGradient>
<linearGradient id="paint2_linear_116_2843" x1="80.2648" y1="61.5417" x2="56.0426" y2="96.1921" gradientUnits="userSpaceOnUse">
<stop stop-color="#5FABE3"/>
<stop offset="1" stop-color="#4988B6"/>
</linearGradient>
<linearGradient id="paint3_linear_116_2843" x1="80.2648" y1="79.0417" x2="56.0426" y2="113.692" gradientUnits="userSpaceOnUse">
<stop stop-color="#5FABE3"/>
<stop offset="1" stop-color="#4988B6"/>
</linearGradient>
</defs>
</svg>
