<svg width="140" height="140" viewBox="0 0 140 140" fill="none" xmlns="http://www.w3.org/2000/svg">
<path d="M50 88.1124V51.8907C50 43.7868 59.2132 39.1238 65.7087 43.9631L90.022 62.074C95.3253 66.0244 95.3268 73.9777 90.022 77.9294L65.7087 96.0402C59.2167 100.876 50 96.2051 50 88.1124ZM59.8667 50.1479C58.9633 50.1479 57.9993 50.8069 57.9993 51.8907V88.1124C57.9993 89.5524 59.7647 90.3769 60.9848 89.4685L85.2981 71.3576C86.2313 70.6622 86.231 69.3407 85.2981 68.6455C58.856 48.9488 60.7234 50.1479 59.8667 50.1479Z" fill="url(#paint0_linear_116_2848)"/>
<path d="M126.177 5C122.345 5 18.9951 5 13.8232 5C8.95814 5 5 8.95814 5 13.8232V126.177C5 131.042 8.95814 135 13.8232 135H126.177C131.042 135 135 131.042 135 126.177V13.8232C135 8.95814 131.042 5 126.177 5ZM110.625 41.5625H126.875V65.9375H110.625V41.5625ZM110.625 74.0625H126.875V98.4375H110.625V74.0625ZM126.875 13.8232V33.4375H110.625V13.125H126.177C126.562 13.125 126.875 13.4381 126.875 13.8232ZM29.375 65.9375H13.125V41.5625H29.375V65.9375ZM13.125 74.0625H29.375V98.4375H13.125V74.0625ZM13.8232 13.125H29.375V33.4375H13.125V13.8232C13.125 13.4381 13.4381 13.125 13.8232 13.125ZM13.125 126.177V106.562H29.375V126.875H13.8232C13.4381 126.875 13.125 126.562 13.125 126.177ZM37.5 13.125H102.5V126.875H37.5V13.125ZM126.177 126.875H110.625V106.562H126.875V126.177C126.875 126.562 126.562 126.875 126.177 126.875Z" fill="url(#paint1_linear_116_2848)"/>
<defs>
<linearGradient id="paint0_linear_116_2848" x1="88.6291" y1="1.86665" x2="26.4719" y2="14.0168" gradientUnits="userSpaceOnUse">
<stop stop-color="#5FABE3"/>
<stop offset="1" stop-color="#4988B6"/>
</linearGradient>
<linearGradient id="paint1_linear_116_2848" x1="119.131" y1="-88.1667" x2="-60.4188" y2="-43.4971" gradientUnits="userSpaceOnUse">
<stop stop-color="#5FABE3"/>
<stop offset="1" stop-color="#4988B6"/>
</linearGradient>
</defs>
</svg>
