<svg width="160" height="160" viewBox="0 0 160 160" fill="none" xmlns="http://www.w3.org/2000/svg">
<path d="M55.2568 45.5108C57.3451 46.5787 59.9516 45.8399 61.0781 43.862C64.846 37.2483 72.0965 33.1396 80.0001 33.1396C87.904 33.1396 95.1543 37.2483 98.9219 43.862C100.045 45.8339 102.649 46.5814 104.743 45.5108C106.831 44.4434 107.611 41.9747 106.484 39.9965C101.214 30.7463 91.0664 25 80.0001 25C68.9338 25 58.7858 30.7463 53.5162 39.9965C52.3894 41.9744 53.1687 44.4434 55.2568 45.5108Z" fill="url(#paint0_linear_116_3379)"/>
<path d="M37.589 67.0621H67.4599V84.2182H63.2329C56.2406 84.2182 50.5519 89.8957 50.5519 96.8743V117.113C50.5519 135.884 65.004 152.172 84.69 151.999C103.159 151.823 118.184 136.683 118.184 118.249V103.237C118.184 97.7001 114.618 92.6472 109.513 90.9487L92.8219 85.396V67.0621H122.411C138.726 67.0621 152 53.8144 152 37.531C152 21.2476 138.726 8 122.411 8H37.589C21.2736 8 8 21.2476 8 37.531C8 53.8144 21.2736 67.0621 37.589 67.0621ZM106.84 98.9536C108.487 99.5017 109.73 101.343 109.73 103.237V118.249C109.73 132.075 98.461 143.43 84.6094 143.561C69.6483 143.695 59.0059 131.207 59.0059 117.113V96.8743C59.0059 94.5481 60.9021 92.6556 63.2329 92.6556H67.4599V108.377C67.4599 110.707 69.3525 112.596 71.6869 112.596C74.0213 112.596 75.9139 110.707 75.9139 108.377C75.9139 106.37 75.9139 56.8682 75.9139 54.4059C75.9139 52.0797 77.8101 50.1872 80.1409 50.1872C82.4717 50.1872 84.3679 52.0797 84.3679 54.4059V88.4369C84.3679 90.2526 85.532 91.8647 87.258 92.4391L106.84 98.9536ZM37.589 16.4374H122.411C134.065 16.4374 143.546 25.9 143.546 37.531C143.546 49.162 134.065 58.6246 122.411 58.6246H92.8219V54.4059C92.8219 47.4273 87.1332 41.7497 80.1409 41.7497C73.1486 41.7497 67.4599 47.4273 67.4599 54.4059V58.6246H37.589C25.9352 58.6246 16.454 49.162 16.454 37.531C16.454 25.9 25.9352 16.4374 37.589 16.4374Z" fill="url(#paint1_linear_116_3379)"/>
<defs>
<linearGradient id="paint0_linear_116_3379" x1="100.408" y1="9.94999" x2="44.2098" y2="45.9023" gradientUnits="userSpaceOnUse">
<stop stop-color="#5FABE3"/>
<stop offset="1" stop-color="#4988B6"/>
</linearGradient>
<linearGradient id="paint1_linear_116_3379" x1="134.423" y1="-95.2001" x2="-64.4638" y2="-45.7199" gradientUnits="userSpaceOnUse">
<stop stop-color="#5FABE3"/>
<stop offset="1" stop-color="#4988B6"/>
</linearGradient>
</defs>
</svg>
