<svg width="160" height="160" viewBox="0 0 160 160" fill="none" xmlns="http://www.w3.org/2000/svg">
<path d="M21.858 142H138.142C144.98 142 150.542 136.437 150.542 129.6V30.4C150.542 23.5626 144.98 18 138.142 18H21.858C15.0206 18 9.45801 23.5626 9.45801 30.4V129.6C9.45801 136.437 15.0206 142 21.858 142ZM67.6002 26.2667H92.4002V55.4218C88.6025 53.5009 84.3799 52.485 80.0002 52.485C75.6206 52.485 71.3979 53.5009 67.6002 55.4218V26.2667ZM17.7247 30.4C17.7247 28.1209 19.5789 26.2667 21.858 26.2667H59.3336V63.4667C59.3336 65.1385 60.3404 66.6458 61.8852 67.2853C63.43 67.9252 65.2079 67.5716 66.3897 66.3892C70.0251 62.7538 74.8589 60.7516 80.0005 60.7516C85.1421 60.7516 89.9756 62.7538 93.6113 66.3892C94.7932 67.5713 96.5713 67.9249 98.1158 67.2853C99.6603 66.6455 100.667 65.1385 100.667 63.4667V26.2667H138.143C140.422 26.2667 142.276 28.1209 142.276 30.4V129.6C142.276 131.879 140.422 133.733 138.143 133.733H21.858C19.5789 133.733 17.7247 131.879 17.7247 129.6V30.4Z" fill="url(#paint0_linear_116_3389)"/>
<path d="M44.0113 99.4563C45.6255 101.071 48.2424 101.071 49.8566 99.4563C51.4709 97.8421 51.4709 95.2252 49.8566 93.611L48.6459 92.4002H104.801C111.638 92.4002 117.201 97.9628 117.201 104.8C117.201 111.638 111.638 117.2 104.801 117.2H46.9338C44.6511 117.2 42.8005 119.051 42.8005 121.333C42.8005 123.616 44.6511 125.467 46.9338 125.467H104.801C116.196 125.467 125.467 116.196 125.467 104.8C125.467 93.4046 116.196 84.1335 104.801 84.1335H48.6459L49.8564 82.923C51.4706 81.3088 51.4706 78.6918 49.8564 77.0776C48.2424 75.4637 45.6252 75.4637 44.011 77.0776L35.7443 85.3443C34.1301 86.9585 34.1301 89.5755 35.7443 91.1897L44.0113 99.4563Z" fill="url(#paint1_linear_116_3389)"/>
<defs>
<linearGradient id="paint0_linear_116_3389" x1="133.321" y1="-70.8667" x2="-58.2498" y2="-16.6401" gradientUnits="userSpaceOnUse">
<stop stop-color="#5FABE3"/>
<stop offset="1" stop-color="#4988B6"/>
</linearGradient>
<linearGradient id="paint1_linear_116_3389" x1="114.367" y1="40.3208" x2="3.96781" y2="90.6753" gradientUnits="userSpaceOnUse">
<stop stop-color="#5FABE3"/>
<stop offset="1" stop-color="#4988B6"/>
</linearGradient>
</defs>
</svg>
