<svg width="160" height="160" viewBox="0 0 160 160" fill="none" xmlns="http://www.w3.org/2000/svg">
<path d="M145.938 33.125H14.0625C6.30844 33.125 0 39.4334 0 47.1875V65.9375C0 68.5262 2.09875 70.625 4.6875 70.625H9.375C14.5444 70.625 18.75 74.8306 18.75 80C18.75 85.1694 14.5444 89.375 9.375 89.375H4.6875C2.09875 89.375 0 91.4738 0 94.0625V112.812C0 120.567 6.30844 126.875 14.0625 126.875H145.938C153.692 126.875 160 120.567 160 112.812V94.0625C160 91.4738 157.901 89.375 155.312 89.375H150.625C145.456 89.375 141.25 85.1694 141.25 80C141.25 74.8306 145.456 70.625 150.625 70.625H155.312C157.901 70.625 160 68.5262 160 65.9375V47.1875C160 39.4334 153.692 33.125 145.938 33.125ZM150.625 61.25C140.286 61.25 131.875 69.6613 131.875 80C131.875 90.3387 140.286 98.75 150.625 98.75V112.812C150.625 115.397 148.522 117.5 145.938 117.5H14.0625C11.4778 117.5 9.375 115.397 9.375 112.812V98.75C19.7137 98.75 28.125 90.3387 28.125 80C28.125 69.6613 19.7137 61.25 9.375 61.25V47.1875C9.375 44.6028 11.4778 42.5 14.0625 42.5H145.938C148.522 42.5 150.625 44.6028 150.625 47.1875V61.25Z" fill="url(#paint0_linear_116_3383)"/>
<path d="M98.75 80C90.9959 80 84.6875 86.3084 84.6875 94.0625C84.6875 101.817 90.9959 108.125 98.75 108.125C106.504 108.125 112.812 101.817 112.812 94.0625C112.812 86.3084 106.504 80 98.75 80ZM98.75 98.75C96.1653 98.75 94.0625 96.6472 94.0625 94.0625C94.0625 91.4778 96.1653 89.375 98.75 89.375C101.335 89.375 103.438 91.4778 103.438 94.0625C103.438 96.6472 101.335 98.75 98.75 98.75Z" fill="url(#paint1_linear_116_3383)"/>
<path d="M75.3125 65.9375C75.3125 58.1834 69.0041 51.875 61.25 51.875C53.4959 51.875 47.1875 58.1834 47.1875 65.9375C47.1875 73.6916 53.4959 80 61.25 80C69.0041 80 75.3125 73.6916 75.3125 65.9375ZM56.5625 65.9375C56.5625 63.3528 58.6653 61.25 61.25 61.25C63.8347 61.25 65.9375 63.3528 65.9375 65.9375C65.9375 68.5222 63.8347 70.625 61.25 70.625C58.6653 70.625 56.5625 68.5222 56.5625 65.9375Z" fill="url(#paint2_linear_116_3383)"/>
<path d="M101.679 52.9024C99.6566 51.2849 96.7069 51.613 95.0901 53.6346L57.5901 100.51C55.9729 102.531 56.3007 105.481 58.3219 107.098C60.3347 108.708 63.2863 108.396 64.9104 106.366L102.41 59.4909C104.028 57.4696 103.7 54.5196 101.679 52.9024Z" fill="url(#paint3_linear_116_3383)"/>
<defs>
<linearGradient id="paint0_linear_116_3383" x1="140.469" y1="-34.0625" x2="-58.3498" y2="50.3552" gradientUnits="userSpaceOnUse">
<stop stop-color="#5FABE3"/>
<stop offset="1" stop-color="#4988B6"/>
</linearGradient>
<linearGradient id="paint1_linear_116_3383" x1="109.379" y1="59.8437" x2="70.5344" y2="69.5078" gradientUnits="userSpaceOnUse">
<stop stop-color="#5FABE3"/>
<stop offset="1" stop-color="#4988B6"/>
</linearGradient>
<linearGradient id="paint2_linear_116_3383" x1="71.8794" y1="31.7187" x2="33.0344" y2="41.3828" gradientUnits="userSpaceOnUse">
<stop stop-color="#5FABE3"/>
<stop offset="1" stop-color="#4988B6"/>
</linearGradient>
<linearGradient id="paint3_linear_116_3383" x1="97.7159" y1="11.5624" x2="31.8003" y2="25.228" gradientUnits="userSpaceOnUse">
<stop stop-color="#5FABE3"/>
<stop offset="1" stop-color="#4988B6"/>
</linearGradient>
</defs>
</svg>
